<?xml version="1.0" encoding="utf-8"?>
<!-- Generator: Adobe Illustrator 22.0.0, SVG Export Plug-In . SVG Version: 6.00 Build 0)  -->
<svg version="1.1" id="Capa_1" xmlns="http://www.w3.org/2000/svg" xmlns:xlink="http://www.w3.org/1999/xlink" x="0px" y="0px"
	 viewBox="0 0 57.5 57.5" style="enable-background:new 0 0 57.5 57.5;" xml:space="preserve">
<style type="text/css">
	.st0{fill:#E96E5C;}
</style>
<g>
	<g>
		<circle class="st0" cx="32.7" cy="13.5" r="5"/>
		<path class="st0" d="M45.4,10.5c0-2.7-4.1-2.7-4.2,0c0,2.4-0.7,7.5-3.2,9c-2.3-0.9-4.7,0.6-5.4,2.6c0,0.1-0.1,0.1-0.1,0.2
			c-0.7,1.2-1.5,2.3-2.4,3.2c-1.1-1-1.9-2.2-3-3.3c-0.8-0.8-1.8-0.8-2.5-0.3l-4.2-4.5c1.6-1.9,1-5.3-1.4-7.9
			c-2.5-2.7-6.2-3.5-8.1-1.7C9,9.6,9.5,13.3,12,16c2.4,2.6,5.8,3.4,7.8,2l4.2,4.6c-0.5,0.7-0.6,1.8,0.2,2.6c1.6,1.7,3,3.5,4.9,4.8
			c0.8,0.5,1.8,0.2,2.5-0.3c1.1-0.9,2.1-1.8,2.9-2.9c1.4,2.5,1.3,7.1,1.1,9.7c0,0.4,0,0.8,0.1,1.1c-1.2,3-1.1,6.2-3.2,8.8
			c-1.3,1.6-2.7,3-4.2,4.4c-1.9,1.9,1,4.8,2.9,2.9c1.6-1.6,3.2-3.2,4.6-4.9c2.1-2.6,2.4-5.6,3.3-8.6c0.3,0,0.5,0,0.8-0.1
			c0.6,5,0.7,9.8-2,14.3c-1.4,2.3,2.2,4.4,3.6,2.1c3.8-6.4,3.1-13.4,1.9-20.5c0-0.1,0-0.1-0.1-0.2c0.3-4.2-0.1-9.8-2.4-13.6
			C44.2,19.7,45.3,14.4,45.4,10.5z M12.3,15.7c-2.4-2.5-2.8-5.9-1.1-7.6s5.1-0.9,7.4,1.6c2.4,2.5,2.8,5.9,1.1,7.6
			C18,18.9,14.7,18.2,12.3,15.7z"/>
		<circle class="st0" cx="46" cy="1.9" r="1.9"/>
	</g>
</g>
</svg>
