<?xml version="1.0" encoding="utf-8"?>
<!-- Generator: Adobe Illustrator 22.0.0, SVG Export Plug-In . SVG Version: 6.00 Build 0)  -->
<svg version="1.1" id="Capa_1" xmlns="http://www.w3.org/2000/svg" xmlns:xlink="http://www.w3.org/1999/xlink" x="0px" y="0px"
	 viewBox="0 0 89.5 89.5" style="enable-background:new 0 0 89.5 89.5;" xml:space="preserve">
<style type="text/css">
	.st0{fill:#E96E5C;}
</style>
<g>
	<path class="st0" d="M12.2,88.1v-7.8h65.1v7.8c0,0.8,0.6,1.4,1.4,1.4s1.4-0.6,1.4-1.4V80h8.1c0.8,0,1.4-0.6,1.4-1.4
		c0-0.8-0.6-1.4-1.4-1.4H80V12.3h8.1c0.8,0,1.4-0.6,1.4-1.4c0-0.8-0.6-1.4-1.4-1.4H80V1.5c0-0.8-0.6-1.4-1.4-1.4s-1.4,0.6-1.4,1.4
		v8.1H12.2V1.5c0-0.8-0.6-1.4-1.4-1.4S9.5,0.7,9.5,1.5v8.1H1.4C0.6,9.6,0,10.2,0,10.9c0,0.8,0.6,1.4,1.4,1.4h8v64.9h-8
		c-0.8,0-1.4,0.6-1.4,1.4C0,79.4,0.6,80,1.4,80h8.1v8.1c0,0.8,0.6,1.4,1.4,1.4S12.2,88.8,12.2,88.1z M12.2,33.3v-21h21.1v21H12.2z
		 M34.2,33.3v-21h21.1v21H34.2z M56.2,33.3v-21h21.1v21H56.2z M12.2,55.3V34.2h21.1v21.1L12.2,55.3L12.2,55.3z M34.2,55.3V34.2h21.1
		v21.1H34.2L34.2,55.3z M56.2,55.3V34.2h21.1v21.1H56.2L56.2,55.3z M12.2,77.3V56.2h21.1v21.1H12.2z M34.2,77.3V56.2h21.1v21.1H34.2
		z M56.2,77.3V56.2h21.1v21.1H56.2z M58.1,75.6V58.3h17.3v17.3L58.1,75.6L58.1,75.6z"/>
</g>
</svg>
