<?xml version="1.0" encoding="utf-8"?>
<!-- Generator: Adobe Illustrator 22.0.0, SVG Export Plug-In . SVG Version: 6.00 Build 0)  -->
<svg version="1.1" id="Capa_1" xmlns="http://www.w3.org/2000/svg" xmlns:xlink="http://www.w3.org/1999/xlink" x="0px" y="0px"
	 viewBox="0 0 512 512" style="enable-background:new 0 0 512 512;" xml:space="preserve">
<style type="text/css">
	.st0{fill:#E96E5C;}
</style>
<g>
	<path class="st0" d="M496.9,240.9h-30.1V0H45.2v240.9H15.1v30.1h30.1V512h421.6V271.1h30.1V240.9z M436.7,240.9h-45.2V30.1h45.2
		V240.9z M240.9,451.8v30.1h-90.4v-90.4h210.8v90.4h-90.4v-30.1H240.9z M271.1,60.2V30.1h90.4v90.4H150.6V30.1h90.4v30.1H271.1z
		 M240.9,150.6v90.4h-90.4v-90.4H240.9z M240.9,271.1v90.4h-90.4v-90.4H240.9z M271.1,361.4v-90.4h90.4v90.4H271.1z M271.1,240.9
		v-90.4h90.4v90.4H271.1z M75.3,30.1h45.2v210.8H75.3V30.1z M75.3,271.1h45.2v210.8H75.3V271.1z M436.7,481.9h-45.2V271.1h45.2
		V481.9z"/>
</g>
</svg>
