<?xml version="1.0" encoding="utf-8"?>
<!-- Generator: Adobe Illustrator 22.0.0, SVG Export Plug-In . SVG Version: 6.00 Build 0)  -->
<svg version="1.1" id="Capa_1" xmlns="http://www.w3.org/2000/svg" xmlns:xlink="http://www.w3.org/1999/xlink" x="0px" y="0px"
	 viewBox="0 0 323.8 323.8" style="enable-background:new 0 0 323.8 323.8;" xml:space="preserve">
<style type="text/css">
	.st0{fill:#E96E5C;}
</style>
<g>
	<g>
		<path class="st0" d="M120.2,214.5c4.2,7.1,14.5,1.9,13-4.9c3.1,0.7,6.2,1.1,9.3,1.4l-2.9,41.1c0,0.2,0,0.3,0,0.5
			c-14.3,6.7-23.9,19.4-23.9,34.1h92.8c0-14.7-9.7-27.5-23.9-34.1c0-0.2,0-0.3,0-0.5l-2.9-41.2c3-0.3,5.9-0.7,8.8-1.3
			c-1.5,6.9,8.9,12.1,13,4.9c23.3-39.8,71.6-48.3,101.2-81.2c19.5-21.8,32.1-63.6-3.6-77.9c-14.6-5.9-42.4-3.9-57.3,8.3
			c-0.7-4.4-4-7.7-8.7-7.7c5.2,0,9.4-4.2,9.4-9.4c0-5.2-4.2-9.4-9.4-9.4H230H93.8h-5.2c-5.2,0-9.4,4.2-9.4,9.4
			c0,5.2,4.2,9.4,9.4,9.4c-4.6,0-8,3.3-8.7,7.7C65,51.4,37.3,49.5,22.6,55.4C-13,69.7-0.5,111.5,19,133.3
			C48.6,166.2,96.9,174.7,120.2,214.5z M242.8,104.5c9.2,6.2,23.6,2.3,34-7.5c6.6-6.3-3.4-16.3-10-10c-2.3,2.2-13.4,13.1-17.3,4.9
			c-2.5-5.1-1.1-11.4,3-15.3c9.7-9.3,26.8-14.9,39.9-9.6c37.6,15.1,8.1,54.9-12.9,69.6c-15.4,10.7-32.2,19.8-47.6,30.3
			C237.1,151.8,240.9,131.6,242.8,104.5z M31.5,67c13.1-5.3,30.1,0.3,39.9,9.6c4.1,3.9,5.5,10.2,3,15.3c-4,8.1-15-2.7-17.3-4.9
			c-6.6-6.3-16.6,3.7-10,10c10.4,9.9,24.7,13.8,34,7.5c1.9,27.1,5.7,47.3,11,62.4c-15.4-10.5-32.1-19.6-47.6-30.3
			C23.4,121.9-6.1,82.1,31.5,67z"/>
	</g>
</g>
</svg>
