<svg id="Layer_3" height="512" viewBox="0 0 64 64" width="512" xmlns="http://www.w3.org/2000/svg" data-name="Layer 3"><path d="m19 45h5v16h-5z"/><path d="m9 9h18v4h-18z"/><path d="m9 27h18v4h-18z"/><path d="m9 15h18v4h-18z"/><path d="m12 45h5v16h-5z"/><path d="m9 21h18v4h-18z"/><path d="m43.301 12h-8.301v2h7.19z"/><path d="m35 28h12v4h-12z"/><path d="m39.327 19.152 1.751-3.152h-6.078v4h4.053a2.572 2.572 0 0 1 .274-.848z"/><path d="m47 23h-5.411a2.576 2.576 0 0 1 -2.029-1h-4.56v4h12z"/><path d="m60.927 20.128-9.316-16.768a.7.7 0 0 0 -1.222 0l-9.315 16.766a.588.588 0 0 0 .515.874h18.822a.589.589 0 0 0 .589-.588.58.58 0 0 0 -.073-.284zm-8.927-1.128h-2v-2h2zm0-4h-2v-8h2z"/><path d="m35 45h8v16h-8z"/><path d="m49 33a1 1 0 0 1 -1 1h-13v9h9a1 1 0 0 1 1 1v17h8v-38h-4zm-10 6h-2v-2h2zm4 0h-2v-2h2zm4 0h-2v-2h2z"/><path d="m3 61h7v-17a1 1 0 0 1 1-1h14a1 1 0 0 1 1 1v17h7v-58h-30zm4-53a1 1 0 0 1 1-1h20a1 1 0 0 1 1 1v30a1 1 0 0 1 -1 1h-20a1 1 0 0 1 -1-1z"/><path d="m9 33h18v4h-18z"/></svg>