<?xml version="1.0" encoding="utf-8"?>
<!-- Generator: Adobe Illustrator 22.0.0, SVG Export Plug-In . SVG Version: 6.00 Build 0)  -->
<svg version="1.1" id="Layer_1" xmlns="http://www.w3.org/2000/svg" xmlns:xlink="http://www.w3.org/1999/xlink" x="0px" y="0px"
	 viewBox="0 0 512 512" style="enable-background:new 0 0 512 512;" xml:space="preserve">
<style type="text/css">
	.st0{fill:#e96e5c;}
</style>
<g>
	<g>
		<g>
			<path class="st0" d="M494.6,163.7c-2.3,0-4.7-0.9-6.5-2.7L351,23.9c-3.6-3.6-3.6-9.4,0-13c3.6-3.6,9.4-3.6,13,0l137.2,137.2
				c3.6,3.6,3.6,9.4,0,13C499.3,162.8,497,163.7,494.6,163.7z"/>
			<path class="st0" d="M466.2,214.5c-2.3,0-4.7-0.9-6.5-2.7L300.2,52.2c-3.6-3.6-3.6-9.4,0-13c3.6-3.6,9.4-3.6,13,0l159.6,159.6
				c3.6,3.6,3.6,9.4,0,13C470.9,213.6,468.6,214.5,466.2,214.5z"/>
			<path class="st0" d="M430.8,258.3c-2.3,0-4.7-0.9-6.5-2.7l-168-168c-3.6-3.6-3.6-9.4,0-13c3.6-3.6,9.4-3.6,13,0l168,168
				c3.6,3.6,3.6,9.4,0,13C435.5,257.4,433.2,258.3,430.8,258.3z"/>
			<path class="st0" d="M387.1,293.7c-2.3,0-4.7-0.9-6.5-2.7L221,131.4c-3.6-3.6-3.6-9.4,0-13c3.6-3.6,9.4-3.6,13,0l159.6,159.6
				c3.6,3.6,3.6,9.4,0,13C391.8,292.8,389.4,293.7,387.1,293.7z"/>
			<path class="st0" d="M336.3,322.1c-2.3,0-4.7-0.9-6.5-2.7L192.6,182.2c-3.6-3.6-3.6-9.4,0-13c3.6-3.6,9.4-3.6,13,0l137.2,137.2
				c3.6,3.6,3.6,9.4,0,13C340.9,321.2,338.6,322.1,336.3,322.1z"/>
		</g>
		<g>
			<path class="st0" d="M199.5,242.5c-2.3,0-4.7-0.9-6.5-2.7c-3.6-3.6-3.6-9.4,0-13L408.6,11.3c3.6-3.6,9.4-3.6,13,0
				c3.6,3.6,3.6,9.4,0,13L205.9,239.9C204.1,241.6,201.8,242.5,199.5,242.5z"/>
			<path class="st0" d="M228.6,292.5c-2.3,0-4.7-0.9-6.5-2.7c-3.6-3.6-3.6-9.4,0-13L458.6,40.4c3.6-3.6,9.4-3.6,13,0
				c3.6,3.6,3.6,9.4,0,13L235.1,289.9C233.3,291.6,231,292.5,228.6,292.5z"/>
			<path class="st0" d="M278.6,321.7c-2.3,0-4.7-0.9-6.5-2.7c-3.6-3.6-3.6-9.4,0-13L487.8,90.4c3.6-3.6,9.4-3.6,13,0
				c3.6,3.6,3.6,9.4,0,13L285.1,319C283.3,320.8,281,321.7,278.6,321.7z"/>
		</g>
	</g>
	<path class="st0" d="M478.2,33.8C450.8,6.3,411-5,366.3,2c-42.5,6.6-84.8,29.2-119.1,63.5s-56.9,76.6-63.5,119.1
		c-1.7,10.9-2.3,21.5-1.9,31.7c-2.1,28.7,9.3,64.1-20,94.2l-31.4,31.4l39.7,39.7l31.4-31.4c30.1-29.4,65.6-18,94.3-20.1
		c10.2,0.4,20.8-0.2,31.7-1.9c42.5-6.6,84.8-29.2,119.1-63.5c34.3-34.3,56.9-76.6,63.5-119.1C517,101,505.7,61.2,478.2,33.8z
		 M471.4,139.7c-5.4,34.4-24,69-52.5,97.5c-28.5,28.5-63.1,47.1-97.5,52.5c-32.1,5-59.9-2.4-78.3-20.8
		c-18.4-18.4-25.8-46.2-20.8-78.3c5.4-34.4,24-69,52.5-97.5c28.5-28.5,63.1-47.1,97.5-52.5c32.1-5,59.9,2.4,78.3,20.8
		C469,79.8,476.4,107.6,471.4,139.7z"/>
	<path class="st0" d="M58.5,508.2c-5.1,5.1-13.3,5.1-18.4,0L3.8,471.9c-5.1-5.1-5.1-13.4,0-18.4l116-116c5.1-5.1,13.4-5.1,18.4,0
		l36.3,36.3c5.1,5.1,5.1,13.4,0,18.4L58.5,508.2z"/>
	<g>
		
			<rect x="119.7" y="344.4" transform="matrix(0.7071 -0.7071 0.7071 0.7071 -233.1356 203.3522)" class="st0" width="18.3" height="77.4"/>
		
			<rect x="95.5" y="368.6" transform="matrix(0.7071 -0.7071 0.7071 0.7071 -257.3449 193.3244)" class="st0" width="18.3" height="77.4"/>
		
			<rect x="71.3" y="392.8" transform="matrix(0.7071 -0.7071 0.7071 0.7071 -281.5538 183.2978)" class="st0" width="18.3" height="77.4"/>
	</g>
</g>
</svg>
