<?xml version="1.0" encoding="utf-8"?>
<!-- Generator: Adobe Illustrator 22.0.0, SVG Export Plug-In . SVG Version: 6.00 Build 0)  -->
<svg version="1.1" id="Capa_1" xmlns="http://www.w3.org/2000/svg" xmlns:xlink="http://www.w3.org/1999/xlink" x="0px" y="0px"
	 viewBox="0 0 512 512" style="enable-background:new 0 0 512 512;" xml:space="preserve">
<style type="text/css">
	.st0{fill:#E96E5C;}
</style>
<g>
	<path class="st0" d="M509.9,202.4l-91-155.1c-4.2-7.1-13.3-9.5-20.4-5.4L344,73.4l-49.1-18.1c-1.8-0.7-3.6-1.2-5.5-1.7
		c-13.8-3.5-28.5-1.5-41,5.7l-81.2,46.9c-17.9,10.4-24.1,33.3-13.7,51.2s33.3,24.1,51.2,13.7l89.1-51.4c9.3-5.4,20.7-5.4,30,0
		c0,0,179.5,103.7,180.1,104l2.7-2.2C512.2,216.9,513.7,208.8,509.9,202.4L509.9,202.4z"/>
	<path class="st0" d="M487.1,248.7l-178.4-103l-89.1,51.4c-10.4,6-21.9,9.1-33.6,9.1c-5.9,0-11.8-0.8-17.6-2.3
		c-17.4-4.7-32-15.8-41-31.5c-9-15.6-11.4-33.8-6.7-51.2c3.9-14.4,12.1-26.8,23.7-35.8l-36.8-21.2c-7.3-4.2-16.7-1.6-20.7,5.9
		L1.8,228.8c-3.8,7.1-1.3,16,5.7,20.1l7.8,4.5L29,229.7c11.4-19.7,32.5-31.9,55.2-31.9c11.1,0,22.2,3,31.8,8.5
		c5.6,3.2,10.5,7.2,14.8,11.8c6.9-2.5,14.3-3.9,21.8-3.9c11.1,0,22.2,3,31.8,8.5c14.7,8.5,25.3,22.3,29.7,38.7
		c0.5,1.8,0.9,3.6,1.2,5.4c6.1,1.4,12.1,3.7,17.6,6.9c14.7,8.5,25.3,22.3,29.7,38.7c0.5,1.8,0.9,3.6,1.2,5.4
		c6.1,1.4,12.1,3.7,17.6,6.9c30.4,17.6,40.9,56.6,23.3,87.1l-18.7,32.4l40.1,23.1c16.1,9.3,36.8,3.8,46.1-12.4
		c9.3-16.1,3.8-36.8-12.4-46.1l26,15c16.1,9.3,36.8,3.8,46.1-12.4s3.8-36.8-12.4-46.1l17.3,10c16.1,9.3,36.8,3.8,46.1-12.4
		c9.3-16.1,3.8-36.8-12.4-46.1l-17.3-10c16.1,9.3,36.8,3.8,46.1-12.4C508.8,278.7,503.3,258,487.1,248.7L487.1,248.7z"/>
	<path class="st0" d="M266.4,350.9c-16.1-9.3-36.8-3.8-46.1,12.4l10-17.3c9.3-16.1,3.8-36.8-12.4-46.1s-36.8-3.8-46.1,12.4l10-17.3
		c9.3-16.1,3.8-36.8-12.4-46.1s-36.8-3.8-46.1,12.4l-10,17.3c9.3-16.1,3.8-36.8-12.4-46.1c-16.1-9.3-36.8-3.8-46.1,12.4l-36.3,62.8
		c-9.3,16.1-3.8,36.8,12.4,46.1c16.1,9.3,36.8,3.8,46.1-12.4c-9.3,16.1-3.8,36.8,12.4,46.1c16.1,9.3,36.8,3.8,46.1-12.4
		c-9.3,16.1-3.8,36.8,12.4,46.1c16.1,9.3,36.8,3.8,46.1-12.4c-9.3,16.1-3.8,36.8,12.4,46.1c16.1,9.3,36.8,3.8,46.1-12.4l26.3-45.5
		C288.1,380.9,282.6,360.3,266.4,350.9L266.4,350.9z"/>
</g>
</svg>
