<?xml version="1.0" encoding="utf-8"?>
<!-- Generator: Adobe Illustrator 22.0.0, SVG Export Plug-In . SVG Version: 6.00 Build 0)  -->
<svg version="1.1" id="Layer_1" xmlns="http://www.w3.org/2000/svg" xmlns:xlink="http://www.w3.org/1999/xlink" x="0px" y="0px"
	 viewBox="0 0 512 512" style="enable-background:new 0 0 512 512;" xml:space="preserve">
<style type="text/css">
	.st0{fill:#E96E5C;}
</style>
<g>
	<path class="st0" d="M76.2,294.3V397c0,9.4,7.7,17.1,17.1,17.1c1.2,0,2.3-0.1,3.4-0.3c3.2-0.7,6.1-2.3,8.4-4.5v-109
		c-3.1,1.2-6.5,1.9-10,1.9C87.8,302.2,81.1,299.2,76.2,294.3z"/>
	<path class="st0" d="M415.9,302.2c-3.5,0-6.9-0.7-10-1.9v108c3.1,3.5,7.7,5.8,12.8,5.8c9.4,0,17.1-7.7,17.1-17.1V293.4
		C430.9,298.8,423.8,302.2,415.9,302.2L415.9,302.2z"/>
	<path class="st0" d="M91,123.8c-11.9,0-35.5,0-56.7,0c-18.8,0-34.2,15.1-34.2,33.6v104.7c0,7.9,6.4,14.2,14.2,14.2
		c7.9,0,14.3-6.4,14.3-14.3V157.5c0-2.7,3.1-5.2,6.1-5.2V397c0,9.5,7.7,17.1,17.1,17.1c9.4,0,16.8-7.7,16.8-17.1V164v0v0
		C68.6,147,77.5,132.2,91,123.8L91,123.8z"/>
	<ellipse class="st0" cx="72.5" cy="84.8" rx="29.5" ry="29.5"/>
	<path class="st0" d="M479.5,123.8c-1.4-0.1,2.8,0-59.4,0c13.5,8.4,22.7,23.2,22.8,40.1v0v0V397c0,9.5,7.9,17.1,17.4,17.1
		c9.4,0,17.1-7.7,17.1-17.1c0-9.4,0-220.8,0-244.8c3,0,6.1,2.5,6.1,5.1v104.7c0,7.8,6.3,14.3,14.3,14.3c8,0,14.3-6.5,14.3-14.3
		V157.3C511.9,139.4,497.5,124.7,479.5,123.8L479.5,123.8z"/>
	<ellipse transform="matrix(0.9871 -0.16 0.16 0.9871 -7.9205 71.413)" class="st0" cx="439.4" cy="84.9" rx="29.5" ry="29.5"/>
	<path class="st0" d="M161.6,286.6V419c0,10.1,7.6,18.2,17.7,18.2c10,0,18.2-8.1,18.2-18.2V313.9c-2.3,0.6-4.7,0.9-7.1,0.9
		C174.8,314.9,161.6,302.2,161.6,286.6L161.6,286.6z"/>
	<path class="st0" d="M161.6,169.5L161.6,169.5c0.1-17.2,9.5-32.3,22.9-41.3h-68.1c-20,0-36.4,16-36.5,35.8v111.4
		c0,8.4,6.8,15.2,15.2,15.2s15.2-6.8,15.2-15.2c0-9.6,0-96.4,0-111.4c0-2.9,3.4-5.5,6.6-5.5V419c0,10.1,8.1,18.2,18.1,18.2
		c10.1,0,18.2-8.3,18.2-18.2V273.5h8.4L161.6,169.5L161.6,169.5z"/>
	<circle class="st0" cx="157.2" cy="86.7" r="31.4"/>
	<path class="st0" d="M431.1,275.4V163.9c-0.1-19.7-16.5-35.7-36.5-35.7c-22.7,0-45.3,0-68.1,0c13.4,9,22.3,24.1,22.4,41.2v0v0
		v104.1h8.9V419c0,10.1,8.1,18.2,18.2,18.2c10.1,0,18.1-8.1,18.1-18.2c0-15,0.1-181.1,0-260.5c0.3,0,0.7,0,1.4,0.1
		c2.8,0.4,5.2,2.8,5.2,5.4v111.4c0,1.8,0.3,3.5,0.9,5.1v0c2.1,5.9,7.7,10.1,14.3,10.1C424.3,290.5,431.1,283.8,431.1,275.4z"/>
	<path class="st0" d="M313.6,313.9V419c0,10.1,8.1,18.2,18.2,18.2c10,0,17.2-8.1,17.2-18.2V286.6
		C348.9,305.1,331.4,318.6,313.6,313.9L313.6,313.9z"/>
	<circle class="st0" cx="353.9" cy="86.7" r="31.4"/>
	<path class="st0" d="M320.7,302.6c8.8,0,15.9-7.1,15.9-15.9V169.4c-0.1-20.7-17.3-37.5-38.3-37.5c-9.7,0-75.9,0-85.6,0
		c-21,0-38.2,16.8-38.3,37.6v117.1c0,8.8,7.1,15.9,15.9,15.9c8.8,0,15.9-7.2,15.9-15.9v-117c0-3,3.4-5.8,6.8-5.8
		c-0.3,225.4,0.1,162.1,0,273.8c0,10.6,8.6,19.1,19.2,19.1s19.1-8.6,19.1-19.1V284.7h8.3v152.9c0,10.6,8.6,19.1,19.1,19.1
		s19.2-8.6,19.2-19.1V163.8c3.4,0,6.7,2.8,6.8,5.7c0,0,0,117.3,0,117.1c0,6.2,3.6,11.6,8.8,14.2C315.7,302,318.1,302.6,320.7,302.6
		L320.7,302.6z"/>
	<ellipse transform="matrix(0.1602 -0.9871 0.9871 0.1602 127.4233 326.4055)" class="st0" cx="255.5" cy="88.3" rx="33" ry="33"/>
</g>
</svg>
