<?xml version="1.0" encoding="utf-8"?>
<!-- Generator: Adobe Illustrator 22.0.0, SVG Export Plug-In . SVG Version: 6.00 Build 0)  -->
<svg version="1.1" id="Capa_1" xmlns="http://www.w3.org/2000/svg" xmlns:xlink="http://www.w3.org/1999/xlink" x="0px" y="0px"
	 viewBox="0 0 98 98" style="enable-background:new 0 0 98 98;" xml:space="preserve">
<style type="text/css">
	.st0{fill:#E96E5C;}
</style>
<g>
	<g>
		<path class="st0" d="M49.5,38.7c1.6,0,3.2,0.3,4.6,0.9c0.1-2.3,0.9-4.4,2.2-6.2c-0.9-0.2-1.8-0.3-2.7-0.3h-8.9
			c-0.9,0-1.9,0.1-2.7,0.3c1.3,1.9,2.2,4.2,2.2,6.6C45.7,39.2,47.5,38.7,49.5,38.7z"/>
		<circle class="st0" cx="49.1" cy="22" r="10.5"/>
		<path class="st0" d="M65.5,50.4c5.3,0,9.7-4.3,9.7-9.7c0-5.3-4.3-9.7-9.7-9.7c-5.3,0-9.6,4.3-9.7,9.5c3,1.9,5.2,5.1,5.6,8.9
			C62.7,50,64.1,50.4,65.5,50.4z"/>
		<path class="st0" d="M32.6,31c-5.3,0-9.7,4.3-9.7,9.7s4.3,9.7,9.7,9.7c1.9,0,3.7-0.6,5.1-1.5c0.5-3.1,2.1-5.8,4.5-7.6
			c0-0.2,0-0.4,0-0.5C42.2,35.3,37.9,31,32.6,31z"/>
		<path class="st0" d="M71.8,30.8c3,1.9,5.2,5.1,5.6,8.9c1.2,0.6,2.6,0.9,4.1,0.9c5.3,0,9.7-4.3,9.7-9.7s-4.3-9.7-9.7-9.7
			C76.2,21.3,71.9,25.5,71.8,30.8z"/>
		<circle class="st0" cx="49.5" cy="50.7" r="9.7"/>
		<path class="st0" d="M69.6,51h-8.1c-0.1,3.3-1.5,6.2-3.7,8.3c6.1,1.8,10.5,7.4,10.5,14.1v3.1c8-0.3,12.7-2.6,13-2.7l0.6-0.3H82
			v-10C82,56.6,76.5,51,69.6,51z"/>
		<path class="st0" d="M85.6,41.3h-8.1c-0.1,3.3-1.5,6.2-3.7,8.3c6.1,1.8,10.5,7.4,10.5,14.1v3.1c8-0.3,12.7-2.6,13-2.7l0.6-0.3H98
			v-10C98,46.8,92.4,41.3,85.6,41.3z"/>
		<path class="st0" d="M41.3,59.3c-2.2-2.1-3.6-5-3.7-8.3c-0.3,0-0.6,0-0.9,0h-8.2c-6.8,0-12.4,5.6-12.4,12.4v10l0,0.2l0.7,0.2
			c5.2,1.6,9.9,2.4,13.9,2.6v-3C30.7,66.8,35.2,61.1,41.3,59.3z"/>
		<path class="st0" d="M53.6,61h-8.2c-6.8,0-12.4,5.6-12.4,12.4v10l0,0.2l0.7,0.2c6.5,2,12.2,2.7,16.8,2.7c9.1,0,14.4-2.6,14.7-2.8
			l0.6-0.3H66v-10C66,66.6,60.5,61,53.6,61z"/>
		<path class="st0" d="M16.5,40.9c1.5,0,2.8-0.3,4.1-0.9c0.4-3.8,2.5-7,5.6-8.9c-0.1-5.3-4.4-9.5-9.7-9.5c-5.3,0-9.7,4.3-9.7,9.7
			C6.8,36.6,11.1,40.9,16.5,40.9z"/>
		<path class="st0" d="M24.2,49.9c-2.2-2.1-3.6-5-3.7-8.3h-8.1C5.6,41.6,0,47.2,0,54v10h0.1l0.6,0.3c0.3,0.2,4.9,2.4,13,2.7V64
			C13.7,57.3,18.1,51.7,24.2,49.9z"/>
		<path class="st0" d="M27.8,30.1c1.2-0.5,2.9-1,4.6-1c2,0,3.9,0.5,5.6,1.5c0.4-0.4,0.7-0.8,1-1.2c-1.6-2.1-2.5-4.8-2.5-7.5
			c0-1.8,0.4-3.6,1.2-5.3c-1.8-1.6-4-2.5-6.4-2.5c-4.3,0-8.1,2.9-9.2,7.1C25.3,23.1,27.5,26.4,27.8,30.1z"/>
		<path class="st0" d="M59.1,28.7c0.3,0.5,0.7,1,1.2,1.5c1.6-0.8,3.3-1.2,5.1-1.2c1.7,0,3.4,0.4,4.5,0.8c0.3-4,2.8-7.6,6.4-9.4
			c-1.3-3.8-4.9-6.4-9-6.4c-2.6,0-5.1,1.1-6.9,3c0.6,1.5,1,3.1,1,4.7C61.2,24.3,60.5,26.7,59.1,28.7z"/>
	</g>
</g>
</svg>
