<?xml version="1.0" encoding="utf-8"?>
<!-- Generator: Adobe Illustrator 22.0.0, SVG Export Plug-In . SVG Version: 6.00 Build 0)  -->
<svg version="1.1" id="Capa_1" xmlns="http://www.w3.org/2000/svg" xmlns:xlink="http://www.w3.org/1999/xlink" x="0px" y="0px"
	 viewBox="0 0 512 512" style="enable-background:new 0 0 512 512;" xml:space="preserve">
<style type="text/css">
	.st0{fill:#E96E5C;}
</style>
<g id="Group_Learning_1_">
	<g>
		<path class="st0" d="M331,512H181v-47c0-24.8,20.2-45,45-45h60c24.8,0,45,20.2,45,45V512z"/>
	</g>
	<g>
		<path class="st0" d="M512,512H362v-47c0-24.8,20.2-45,45-45h60c24.8,0,45,20.2,45,45V512z"/>
	</g>
	<g>
		<path class="st0" d="M150,512H0v-47c0-24.8,20.2-45,45-45h60c24.8,0,45,20.2,45,45V512z"/>
	</g>
	<g>
		<path class="st0" d="M256,420c-24.8,0-45-20.2-45-45s20.2-45,45-45s45,20.2,45,45S280.8,420,256,420z"/>
	</g>
	<g>
		<path class="st0" d="M437,420c-24.8,0-45-20.2-45-45s20.2-45,45-45s45,20.2,45,45S461.8,420,437,420z"/>
	</g>
	<g>
		<path class="st0" d="M75,420c-24.8,0-45-20.2-45-45s20.2-45,45-45s45,20.2,45,45S99.8,420,75,420z"/>
	</g>
	<g>
		<path class="st0" d="M226,90h-45v90h60v-75C241,96.7,234.3,90,226,90z"/>
		<path class="st0" d="M271,105v75h60V90h-45C277.7,90,271,96.7,271,105z"/>
		<path class="st0" d="M31,0v270h189l36,34.3l36-34.3h189V0H31z M361,210c-7.8,0-213.8,0-210,0V60h75c11.6,0,22,4.5,30,11.7
			c8-7.2,18.4-11.7,30-11.7h75V210z"/>
	</g>
</g>
</svg>
