<?xml version="1.0" encoding="utf-8"?>
<!-- Generator: Adobe Illustrator 22.0.0, SVG Export Plug-In . SVG Version: 6.00 Build 0)  -->
<svg version="1.1" id="Capa_1" xmlns="http://www.w3.org/2000/svg" xmlns:xlink="http://www.w3.org/1999/xlink" x="0px" y="0px"
	 viewBox="0 0 682.7 682.7" style="enable-background:new 0 0 682.7 682.7;" xml:space="preserve">
<style type="text/css">
	.st0{fill:#E96E5C;}
</style>
<path class="st0" d="M567.3,114.7C506.8,54.3,426.5,21,341,21s-165.8,33.3-226.3,93.7C54.3,175.2,21,255.5,21,341
	s33.3,165.8,93.7,226.3C175.2,627.7,255.5,661,341,661s165.8-33.3,226.3-93.7C627.7,506.8,661,426.5,661,341
	S627.7,175.2,567.3,114.7z M341,599.3C198.6,599.3,82.7,483.4,82.7,341S198.6,82.7,341,82.7S599.3,198.6,599.3,341
	S483.4,599.3,341,599.3z M499.9,341c0-10.4,8.4-18.8,18.8-18.8H561c-4-46.8-22.6-89.5-51.2-123.4L480,228.6
	c-7.3,7.3-19.2,7.3-26.5,0c-7.3-7.3-7.3-19.2,0-26.5l29.8-29.8c-34-28.7-76.7-47.3-123.5-51.3v42.3c0,10.4-8.4,18.8-18.8,18.8
	s-18.8-8.4-18.8-18.8V121c-46.8,4-89.4,22.6-123.4,51.2l29.9,29.9c7.3,7.3,7.3,19.2,0,26.5c-3.7,3.6-8.5,5.5-13.3,5.5
	c-4.8,0-9.6-1.8-13.2-5.5l-29.9-29.9c-28.7,34-47.3,76.7-51.3,123.5h42.3c10.4,0,18.8,8.4,18.8,18.8s-8.4,18.8-18.8,18.8H121
	c4,46.8,22.6,89.6,51.3,123.5l29.9-29.9c7.3-7.3,19.2-7.3,26.5,0c7.3,7.3,7.3,19.2,0,26.5l-29.9,29.9
	c33.9,28.6,76.6,47.2,123.4,51.2v-42.3c0-10.4,8.4-18.8,18.8-18.8s18.8,8.4,18.8,18.8V561c46.8-4,89.6-22.6,123.5-51.3l-29.8-29.8
	c-7.3-7.3-7.3-19.2,0-26.5c7.3-7.3,19.2-7.3,26.5,0l29.8,29.8c28.6-33.9,47.2-76.6,51.2-123.4h-42.3
	C508.3,359.8,499.9,351.4,499.9,341z M402.1,402c-3.7,3.7-8.5,5.5-13.3,5.5c-4.8,0-9.6-1.8-13.2-5.5l-47.4-47.3
	c-3.8-3.8-6-8.9-6-14.4V226.8c0-10.3,8.4-18.8,18.8-18.8s18.8,8.4,18.8,18.8v106.4l42.3,42.2C409.4,382.8,409.4,394.6,402.1,402z"/>
</svg>
