<?xml version="1.0" encoding="utf-8"?>
<!-- Generator: Adobe Illustrator 22.0.0, SVG Export Plug-In . SVG Version: 6.00 Build 0)  -->
<svg version="1.1" id="Capa_1" xmlns="http://www.w3.org/2000/svg" xmlns:xlink="http://www.w3.org/1999/xlink" x="0px" y="0px"
	 viewBox="0 0 40.9 40.9" style="enable-background:new 0 0 40.9 40.9;" xml:space="preserve">
<style type="text/css">
	.st0{fill:#e96e5c;}
</style>
<g>
	<g>
		<g>
			<path class="st0" d="M18.5,0.1C14,0.5,9.5,2.5,6,6c-3.5,3.5-5.5,8-5.9,12.6c5,0.6,10.4,3.2,14.8,7.5c4.4,4.4,7,9.7,7.5,14.8
				c4.6-0.4,9.1-2.4,12.6-5.9c3.5-3.5,5.5-8,5.9-12.6c-5-0.6-10.4-3.2-14.8-7.5C21.7,10.5,19.1,5.1,18.5,0.1z"/>
			<path class="st0" d="M40.9,19.9c-0.1-5-2.1-10-6-13.9c-3.8-3.8-8.8-5.8-13.9-6c0.6,4.4,2.9,9.1,6.8,13S36.5,19.3,40.9,19.9z"/>
			<path class="st0" d="M0,21.1c0.1,5,2.1,10,6,13.9c3.8,3.8,8.8,5.8,13.9,6c-0.6-4.4-2.9-9.1-6.8-13C9.1,24,4.4,21.7,0,21.1z"/>
		</g>
	</g>
</g>
</svg>
