<?xml version="1.0" encoding="utf-8"?>
<!-- Generator: Adobe Illustrator 22.0.0, SVG Export Plug-In . SVG Version: 6.00 Build 0)  -->
<svg version="1.1" id="Capa_1" xmlns="http://www.w3.org/2000/svg" xmlns:xlink="http://www.w3.org/1999/xlink" x="0px" y="0px"
	 viewBox="0 0 612 612" style="enable-background:new 0 0 612 612;" xml:space="preserve">
<style type="text/css">
	.st0{fill:#E96E5C;}
</style>
<g>
	<g>
		<g>
			<g>
				<rect x="200.5" y="201.6" class="st0" width="81.7" height="81.7"/>
				<rect x="329.8" y="201.6" class="st0" width="81.7" height="81.7"/>
				<rect x="459.1" y="201.6" class="st0" width="81.7" height="81.7"/>
			</g>
			<g>
				<rect x="71.2" y="324.1" class="st0" width="81.7" height="81.7"/>
				<rect x="200.5" y="324.1" class="st0" width="81.7" height="81.7"/>
				<rect x="329.8" y="324.1" class="st0" width="81.7" height="81.7"/>
				<rect x="459.1" y="324.1" class="st0" width="81.7" height="81.7"/>
			</g>
			<g>
				<rect x="71.2" y="446.6" class="st0" width="81.7" height="81.7"/>
				<rect x="200.5" y="446.6" class="st0" width="81.7" height="81.7"/>
				<rect x="329.8" y="446.6" class="st0" width="81.7" height="81.7"/>
			</g>
		</g>
		<g>
			<path class="st0" d="M571.2,21.7H40.8C18.3,21.7,0,39.9,0,62.5v96.4h612V62.5C612,39.9,593.7,21.7,571.2,21.7z M154.4,127.1
				c-16.9,0-30.6-13.7-30.6-30.6c0-16.9,13.7-30.6,30.6-30.6c16.9,0,30.6,13.7,30.6,30.6C185,113.4,171.3,127.1,154.4,127.1z
				 M457.6,127.1c-16.9,0-30.6-13.7-30.6-30.6c0-16.9,13.7-30.6,30.6-30.6c16.9,0,30.6,13.7,30.6,30.6
				C488.3,113.4,474.6,127.1,457.6,127.1z"/>
		</g>
		<path class="st0" d="M584.8,549.5c0,7.5-6.1,13.6-13.6,13.6H40.8c-7.5,0-13.6-6.1-13.6-13.6v-351H0v351
			c0,22.6,18.3,40.8,40.8,40.8h530.3c22.5,0,40.8-18.3,40.8-40.8v-351h-27.2L584.8,549.5L584.8,549.5z"/>
	</g>
</g>
</svg>
