<svg xmlns="http://www.w3.org/2000/svg" viewBox="0 0 2089.5 2295.37"><defs><style>.cls-1,.cls-14,.cls-7,.cls-8,.cls-9{fill:#f4f4f4;}.cls-2{fill:#e96e5c;}.cls-15,.cls-16,.cls-3,.cls-4,.cls-5,.cls-6{fill:none;stroke:#f4f4f4;stroke-linecap:round;stroke-linejoin:round;}.cls-3{stroke-width:10px;}.cls-4{stroke-width:50px;}.cls-5{stroke-width:12px;}.cls-6{stroke-width:20px;}.cls-7,.cls-8{font-size:240px;}.cls-14,.cls-7,.cls-8,.cls-9{font-family:FuturaBT-Heavy, Futura Hv BT;font-weight:800;}.cls-8{letter-spacing:0.07em;}.cls-9{font-size:197px;letter-spacing:0.01em;}.cls-10{letter-spacing:-0.01em;}.cls-11{letter-spacing:0.01em;}.cls-12{letter-spacing:0.01em;}.cls-13{letter-spacing:-0.01em;}.cls-14{font-size:100px;}.cls-15{stroke-width:14px;}.cls-16{stroke-width:6px;}</style></defs><g id="Capa_2" data-name="Capa 2"><g id="Default"><path class="cls-1" d="M2071.83,567.94c-19.21-212.64-200.95-373.39-414.35-366.48-104,2.82-208.86,12.34-314,5.54C1029.28,186.67,712.59,20.7,429.78,1.09c-118-8.89-234.6,37.15-316.49,121.79A402.73,402.73,0,0,0,2,443.35c13.05,373.37,110.14,694.37,290.19,1019.21,87,157.06,187,303,299.68,442.59,56.22,69.7,114.92,135.82,182.66,195,68.3,59.66,141.94,106.38,223.82,144.88a402.94,402.94,0,0,0,433.77-28c76.58-52.12,148.61-111.28,211.57-177.93,203.62-215.54,312.27-509.37,382.38-810.49C2080,997.12,2111.14,761.32,2071.83,567.94Z"/><path class="cls-2" d="M1986,575.69c-15.12-167.28-158.2-293.54-326-288.11-51.61,1.4-103.1,4.55-154.72,6.44-55.16,2-110.46,2.58-165.48-.9-83.63-5.29-166.57-19.93-248.21-39.28C1011.71,234.9,933,211.45,854.45,187.63c-76-23-152-46.41-229-65.65-34.42-8.6-69.06-16.38-104-22.57A929.52,929.52,0,0,0,423.56,87a303.27,303.27,0,0,0-66.3,2.4,313.4,313.4,0,0,0-66.7,17.27,317.44,317.44,0,0,0-202.8,328c.09.94.19,1.88.28,2.82s.07,1.88.1,2.82c4,114.44,16.09,228.71,38.45,341A2007.8,2007.8,0,0,0,203.05,1058c32.24,91.27,70.65,180.28,114,266.81a2728,2728,0,0,0,145.78,255c53.43,83,111,163.29,172,240.94,42.92,54.66,87.49,108,136.27,157.55,46.12,46.84,96,90.28,150.83,126.34,36,23.67,74.12,44.16,113.13,62.51l2.56,1.2,2.47,1.37a316.81,316.81,0,0,0,341-22l1.27-.93,1.3-.89a1292.26,1292.26,0,0,0,128.56-99.41q29.93-26.45,57.88-55A1033.09,1033.09,0,0,0,1647.6,1902c53.24-68.91,98-144.15,136.08-222.5,39.72-81.78,72.12-167,99.59-253.61q21.15-66.75,38.68-134.57,16.17-62,29.83-124.65c15.15-69.21,28.14-138.9,37.43-209.15,8.65-65.42,14.09-131.32,14.08-197.31,0-30.37-1.15-60.75-3.85-91a761.29,761.29,0,0,0-12-84.13c-.31-1.56-.63-3.12-1-4.67Z"/><path class="cls-3" d="M1103.68,1965.76q78.52-13.34,80.09-80"/><path class="cls-3" d="M1157,2041.13q26.65-62,105-62.05"/><path class="cls-3" d="M1263.58,1965.76a79.95,79.95,0,1,0-79.95,80A80,80,0,0,0,1263.58,1965.76Z"/><path class="cls-1" d="M780.15,1727.31c-1.19,11.23,3.24,24.78,9.26,33.91,7.59,11.51,21.74,19.68,25.87,3,2.7-10.93-1.57-25.24-6.73-34.39-3-5.36-6.25-9.93-11.7-13.3-5.92-3.66-11.8-2.89-14.89,3.78q16.35,24.46,21.4,38.25Q798.86,1746.22,780.15,1727.31Z"/><path class="cls-1" d="M865.07,1920.5c8.24,7.71,21.73,12.33,32.65,13,13.75.87,28.79-5.52,17.93-18.88-7.1-8.74-21.1-14-31.51-15.34-6.1-.81-11.69-1-17.66,1.34-6.49,2.52-9.41,7.68-6,14.16q29.38,1.67,43.43,6Q891.42,1916.94,865.07,1920.5Z"/><path class="cls-1" d="M925.55,1892q-7.15-11-11.07-37.28c9.7,5.77,17.9,17.44,21.6,27.73,4.66,13,2.72,29.19-13.14,22.48-10.37-4.39-19.27-16.38-23.5-26-2.48-5.63-4.2-11-3.64-17.34.62-6.92,4.77-11.17,12-9.65Q917.53,1879.71,925.55,1892Z"/><path class="cls-1" d="M878.62,1847.65q-5-12.12-4-38.69c8.47,7.47,14.36,20.46,16.08,31.25,2.18,13.62-2.74,29.2-17.08,19.66-9.37-6.23-15.89-19.67-18.27-29.9-1.39-6-2.09-11.55-.35-17.71,1.89-6.7,6.75-10.1,13.53-7.27Q873,1834.06,878.62,1847.65Z"/><path class="cls-1" d="M813.9,1864.41c6.68,9.11,19.07,16.16,29.67,18.86,13.36,3.41,29.32-.08,21.13-15.22-5.36-9.9-18.15-17.62-28.12-20.91-5.85-1.94-11.31-3.14-17.61-2-6.84,1.28-10.67,5.81-8.47,12.82q28.56,7.08,41.57,13.89Q840.46,1865.8,813.9,1864.41Z"/><path class="cls-1" d="M776.07,1803.91c5,10.13,16,19.23,25.93,23.74,12.56,5.68,28.88,5,23.45-11.31-3.55-10.69-14.8-20.51-24.05-25.49-5.42-2.92-10.59-5.07-17-5-7,.07-11.52,3.87-10.57,11.15q26.88,12,38.51,20.92Q802,1809.92,776.07,1803.91Z"/><path class="cls-1" d="M842.72,1798.67q-2.81-12.8,2.83-38.79c7,8.84,10.57,22.65,10.39,33.58-.22,13.79-7.79,28.27-20.24,16.38-8.15-7.77-12.23-22.14-12.78-32.63-.33-6.14-.06-11.73,2.73-17.5,3-6.26,8.41-8.77,14.59-4.8Q839.57,1784.32,842.72,1798.67Z"/><path class="cls-1" d="M986.83,1930.4q-9.29-9.26-18.57-34.17c10.69,3.63,21.13,13.35,26.88,22.65,7.26,11.72,8.72,28-8.19,24.71-11.05-2.14-22.24-12-28.38-20.56-3.59-5-6.38-9.84-7.15-16.2-.83-6.91,2.35-11.92,9.69-11.92Q976.43,1920,986.83,1930.4Z"/><path class="cls-1" d="M933.56,1970.8c9.67,5.84,23.82,7.56,34.64,6,13.64-2,27-11.37,13.64-22.19-8.76-7.07-23.54-9.26-34-8.46-6.14.46-11.64,1.45-17,5-5.82,3.81-7.61,9.47-2.88,15.09q29.09-4.46,43.71-3.19Q958.61,1961.87,933.56,1970.8Z"/><path class="cls-1" d="M1050.48,1954.48q-11.06-7-25.54-29.33c11.23,1.23,23.52,8.45,31.16,16.27,9.63,9.87,14.58,25.44-2.63,25.91-11.25.31-24.33-6.91-32.16-13.91-4.6-4.09-8.38-8.22-10.51-14.26-2.31-6.56-.3-12.15,6.87-13.74Q1038.09,1946.6,1050.48,1954.48Z"/><path class="cls-1" d="M1007.26,2005.48c10.7,3.6,24.89,2.21,35.11-1.69,12.88-4.91,23.92-17,8.49-24.61-10.08-5-25-3.94-35-.88-5.89,1.79-11.05,4-15.52,8.54-4.85,5-5.37,10.89.47,15.35q27.42-10.67,42-12.6Q1029.77,1991.32,1007.26,2005.48Z"/><path class="cls-1" d="M1587.1,1727.31c1.2,11.23-3.23,24.78-9.25,33.91-7.59,11.51-21.74,19.68-25.87,3-2.7-10.93,1.57-25.24,6.73-34.39,3-5.36,6.25-9.93,11.7-13.3,5.91-3.66,11.8-2.89,14.88,3.78q-16.35,24.46-21.39,38.25Q1568.4,1746.22,1587.1,1727.31Z"/><path class="cls-1" d="M1502.19,1920.5c-8.25,7.71-21.74,12.33-32.65,13-13.76.87-28.8-5.52-17.94-18.88,7.1-8.74,21.1-14,31.52-15.34,6.1-.81,11.69-1,17.66,1.34,6.48,2.52,9.41,7.68,5.94,14.16q-29.37,1.67-43.42,6Q1475.84,1916.94,1502.19,1920.5Z"/><path class="cls-1" d="M1441.71,1892q7.15-11,11.07-37.28c-9.7,5.77-17.9,17.44-21.6,27.73-4.67,13-2.72,29.19,13.14,22.48,10.37-4.39,19.26-16.38,23.5-26,2.48-5.63,4.2-11,3.63-17.34-.61-6.92-4.76-11.17-12-9.65Q1449.72,1879.71,1441.71,1892Z"/><path class="cls-1" d="M1488.64,1847.65q5-12.12,4-38.69c-8.47,7.47-14.36,20.46-16.09,31.25-2.18,13.62,2.75,29.2,17.08,19.66,9.38-6.23,15.9-19.67,18.27-29.9,1.39-6,2.1-11.55.36-17.71-1.89-6.7-6.75-10.1-13.53-7.27Q1494.23,1834.06,1488.64,1847.65Z"/><path class="cls-1" d="M1553.35,1864.41c-6.67,9.11-19.06,16.16-29.66,18.86-13.36,3.41-29.32-.08-21.13-15.22,5.36-9.9,18.15-17.62,28.12-20.91,5.85-1.94,11.31-3.14,17.61-2,6.84,1.28,10.67,5.81,8.47,12.82q-28.56,7.08-41.58,13.89Q1526.81,1865.8,1553.35,1864.41Z"/><path class="cls-1" d="M1591.19,1803.91c-5,10.13-16,19.23-25.93,23.74-12.56,5.68-28.88,5-23.45-11.31,3.55-10.69,14.8-20.51,24-25.49,5.42-2.92,10.59-5.07,17-5,7,.07,11.52,3.87,10.57,11.15q-26.88,12-38.52,20.92Q1565.28,1809.92,1591.19,1803.91Z"/><path class="cls-1" d="M1524.54,1798.67q2.81-12.8-2.83-38.79c-7,8.84-10.57,22.65-10.39,33.58.22,13.79,7.78,28.27,20.24,16.38,8.14-7.77,12.22-22.14,12.78-32.63.33-6.14.06-11.73-2.73-17.5-3-6.26-8.41-8.77-14.59-4.8Q1527.68,1784.32,1524.54,1798.67Z"/><path class="cls-1" d="M1380.43,1930.4q9.27-9.26,18.57-34.17c-10.69,3.63-21.13,13.35-26.89,22.65-7.25,11.72-8.71,28,8.19,24.71,11.06-2.14,22.25-12,28.38-20.56,3.6-5,6.39-9.84,7.16-16.2.83-6.91-2.35-11.92-9.69-11.92Q1390.82,1920,1380.43,1930.4Z"/><path class="cls-1" d="M1433.69,1970.8c-9.66,5.84-23.82,7.56-34.63,6-13.65-2-27-11.37-13.64-22.19,8.76-7.07,23.53-9.26,34-8.46,6.14.46,11.64,1.45,17,5,5.82,3.81,7.61,9.47,2.88,15.09q-29.08-4.46-43.72-3.19Q1408.66,1961.87,1433.69,1970.8Z"/><path class="cls-1" d="M1316.77,1954.48q11.07-7,25.54-29.33c-11.22,1.23-23.52,8.45-31.15,16.27-9.63,9.87-14.58,25.44,2.63,25.91,11.25.31,24.32-6.91,32.16-13.91,4.6-4.09,8.37-8.22,10.5-14.26,2.32-6.56.3-12.15-6.87-13.74Q1329.18,1946.6,1316.77,1954.48Z"/><path class="cls-1" d="M1360,2005.48c-10.71,3.6-24.9,2.21-35.12-1.69-12.88-4.91-23.91-17-8.49-24.61,10.09-5,25-3.94,35-.88,5.89,1.79,11,4,15.52,8.54,4.85,5,5.37,10.89-.47,15.35q-27.42-10.67-42-12.6Q1337.49,1991.32,1360,2005.48Z"/><line class="cls-4" x1="1223.32" y1="251.25" x2="1223.32" y2="1213.68"/><line class="cls-4" x1="231.71" y1="1213.68" x2="1959.02" y2="1213.68"/><polyline class="cls-3" points="1092.74 464.72 994.34 366.32 776.09 584.58"/><line class="cls-3" x1="1051.4" y1="387.99" x2="781.83" y2="657.56"/><line class="cls-3" x1="773.85" y1="618.14" x2="840.91" y2="685.21"/><line class="cls-3" x1="784.45" y1="550.02" x2="909.05" y2="674.62"/><line class="cls-3" x1="808.38" y1="495.24" x2="963.83" y2="650.68"/><line class="cls-3" x1="839.49" y1="447.62" x2="1011.45" y2="619.58"/><line class="cls-3" x1="876.27" y1="405.68" x2="1053.38" y2="582.8"/><line class="cls-3" x1="923.84" y1="374.54" x2="1084.53" y2="535.23"/><line class="cls-3" x1="1084.53" y1="433.58" x2="833.36" y2="684.75"/><path class="cls-5" d="M836.91,366.32a432.57,432.57,0,0,0-65.78,84A367.57,367.57,0,0,0,747,498.18a290.9,290.9,0,0,0-15.31,47.93,219.91,219.91,0,0,0-5.39,44.41,159.06,159.06,0,0,0,3.82,38.13,117.91,117.91,0,0,0,11.3,30.11A98,98,0,0,0,780.63,698a117.63,117.63,0,0,0,30.1,11.31,159.18,159.18,0,0,0,38.14,3.8,219.89,219.89,0,0,0,44.41-5.37,290,290,0,0,0,47.93-15.32,367,367,0,0,0,47.89-24.14,432.46,432.46,0,0,0,84-65.77A167,167,0,0,0,836.91,366.32Z"/><path class="cls-6" d="M817.23,346.64c-42.75,42.75-75.19,88.48-97.71,145.12-20.63,51.9-32.15,116.2-7,171.34,27.07,59.41,85.31,80.84,145.62,77.57,58.4-3.16,116.19-28.46,163.45-60C1048,663,1079,638,1100.34,614.12a190,190,0,0,0,37.29-61.94,194.81,194.81,0,0,0-16.41-169.37C1055.47,275.22,906.38,257.49,817.23,346.64Z"/><polyline class="cls-3" points="359.83 346.64 261.43 445.04 479.69 663.3"/><line class="cls-3" x1="283.1" y1="387.99" x2="552.66" y2="657.56"/><line class="cls-3" x1="517.76" y1="661.02" x2="584.83" y2="593.96"/><line class="cls-3" x1="445.13" y1="654.94" x2="569.73" y2="530.34"/><line class="cls-3" x1="390.34" y1="631" x2="545.79" y2="475.56"/><line class="cls-3" x1="342.73" y1="599.9" x2="514.69" y2="427.94"/><line class="cls-3" x1="300.79" y1="563.12" x2="477.91" y2="386"/><line class="cls-3" x1="269.64" y1="515.55" x2="430.33" y2="354.86"/><line class="cls-3" x1="333.2" y1="350.35" x2="584.36" y2="601.51"/><path class="cls-5" d="M261.43,602.48a432.22,432.22,0,0,0,84,65.77,367.51,367.51,0,0,0,47.88,24.15,290.22,290.22,0,0,0,47.93,15.3,218.58,218.58,0,0,0,44.41,5.39,159.19,159.19,0,0,0,38.14-3.81A117.63,117.63,0,0,0,553.86,698a97.81,97.81,0,0,0,39.22-39.21,117.56,117.56,0,0,0,11.31-30.11,159,159,0,0,0,3.8-38.13,220.08,220.08,0,0,0-5.38-44.42,289.2,289.2,0,0,0-15.31-47.92,367.57,367.57,0,0,0-24.14-47.89,432.91,432.91,0,0,0-65.77-84A167,167,0,0,0,261.43,602.48Z"/><path class="cls-6" d="M241.75,622.16c42.75,42.75,88.48,75.19,145.11,97.7,51.9,20.64,116.2,32.16,171.35,7,59.4-27.06,80.83-85.3,77.57-145.61-3.17-58.41-28.47-116.19-60-163.45-17.64-26.46-42.68-57.47-66.56-78.78a190.16,190.16,0,0,0-62-37.3,194.78,194.78,0,0,0-169.37,16.42C170.33,383.92,152.59,533,241.75,622.16Z"/><polyline class="cls-6" points="730.99 692.65 673.1 750.54 688.85 766.28 746.73 708.4"/><polyline class="cls-6" points="646.34 808.79 661.39 793.74 645.65 778 630.59 793.05"/><path class="cls-6" d="M482.67,956.72a27.85,27.85,0,0,0,39.36,0L640.11,838.64a27.83,27.83,0,0,0-39.36-39.36L482.67,917.36A27.83,27.83,0,0,0,482.67,956.72Z"/><path class="cls-6" d="M851.82,956.72a27.83,27.83,0,0,0,0-39.36L733.74,799.28a27.83,27.83,0,0,0-39.36,39.36L812.46,956.72A27.85,27.85,0,0,0,851.82,956.72Z"/><line class="cls-6" x1="587.76" y1="708.4" x2="688.15" y2="808.79"/><line class="cls-6" x1="603.5" y1="692.65" x2="703.9" y2="793.05"/><text class="cls-7" transform="translate(1281.32 709.8)">15.05</text><text class="cls-8" transform="translate(1283.32 985.71)">1915</text><text class="cls-9" transform="translate(473.83 1507.7)">P<tspan class="cls-10" x="111.93" y="0">OT</tspan><tspan class="cls-11" x="386.09" y="0">OSÍ TENIS</tspan><tspan class="cls-12"><tspan x="426.4" y="237">C</tspan><tspan class="cls-13" x="570.16" y="237">L</tspan><tspan x="666.22" y="237">UB</tspan></tspan></text><text class="cls-14" transform="translate(1299.58 482.06)">Fund.</text><polygon class="cls-15" points="566 1129.33 668.24 1078.21 770.49 1129.33 668.24 1027.09 566 1129.33"/><polygon class="cls-15" points="514.87 1129.33 668.24 1001.52 821.61 1129.33 668.24 950.4 514.87 1129.33"/><path class="cls-16" d="M668.53,905.08v52"/><path class="cls-16" d="M651.24,921.83h35.25"/></g></g></svg>